<svg width="32" height="32" viewBox="0 0 32 32" fill="none" xmlns="http://www.w3.org/2000/svg">
<path fill-rule="evenodd" clip-rule="evenodd" d="M16 0C7.1634 0 0 7.16344 0 16C0 20.7336 2.0556 24.987 5.3227 27.9164L2.3376 30.2066C1.5795 30.7882 1.9908 32 2.9463 32H15.0391C15.1095 32 15.1765 31.9939 15.2401 31.9823C15.4919 31.994 15.7453 32 16 32C24.8366 32 32 24.8366 32 16C32 7.16344 24.8366 0 16 0Z" fill="#D2D5F9"/>
<path d="M9 18C10.1046 18 11 17.1046 11 16C11 14.8954 10.1046 14 9 14C7.89543 14 7 14.8954 7 16C7 17.1046 7.89543 18 9 18Z" fill="#002DE3"/>
<path d="M16 18C17.1046 18 18 17.1046 18 16C18 14.8954 17.1046 14 16 14C14.8954 14 14 14.8954 14 16C14 17.1046 14.8954 18 16 18Z" fill="#002DE3"/>
<path d="M23 18C24.1046 18 25 17.1046 25 16C25 14.8954 24.1046 14 23 14C21.8954 14 21 14.8954 21 16C21 17.1046 21.8954 18 23 18Z" fill="#002DE3"/>
</svg>
